#!OML:ASF X:\für Bonn\!DataBase\2005_08_12_Daniel\c3d\Daniel.ASF
:FULLY-SPECIFIED
:DEGREES
152
root 1.47852 17.4163 18.3492 -728.582 38.352 -2.59863
lowerback 9.39851 -2.10508 3.66911
upperback 1.03404 -2.55536 -3.27953
thorax -4.50831 -1.35646 -5.16775
lowerneck 0.465301 -3.18271 -1.1072
upperneck 9.42889 -3.80084 -4.7888
head 2.84811 -2.05185 -1.43849
rclavicle 5.40197e-014 2.54444e-014
rhumerus 4.93614 -8.54415 -58.8437
rradius 103.16
rwrist -20.68
rhand -10.8434 19.5206
rfingers 7.12502
rthumb 15.1714 -9.90323
lclavicle 5.40197e-014 2.54444e-014
lhumerus -41.8715 33.8931 59.9859
lradius 23.5625
lwrist -27.0847
lhand -10.9471 -4.77342
lfingers 7.12502
lthumb 15.0715 24.6579
rfemur 4.81389 19.9489 19.9902
rtibia 23.3
rfoot -17.1882 8.64352
rtoes -9.78218
lfemur -10.8804 -25.3012 -14.1775
ltibia 36.5508
lfoot -19.7844 -12.2031
ltoes -11.0586
153
root 1.43107 17.4065 18.35 -728.75 39.1204 -2.71079
lowerback 9.42345 -2.25666 3.71224
upperback 1.11639 -2.7481 -3.21814
thorax -4.45777 -1.44905 -5.10026
lowerneck 0.183712 -2.86239 -1.19123
upperneck 9.63838 -3.32286 -5.10443
head 2.97916 -1.83279 -1.52827
rclavicle -5.01434e-014 -1.35174e-014
rhumerus 3.42632 -7.59078 -59.3768
rradius 105.194
rwrist -20.9107
rhand -10.919 20.253
rfingers 7.12502
rthumb 15.0985 -9.17632
lclavicle -5.01434e-014 -1.35174e-014
lhumerus -41.6223 33.4088 60.5245
lradius 23.8998
lwrist -26.3912
lhand -10.8981 -4.74002
lfingers 7.12502
lthumb 15.1187 24.6878
rfemur 5.09254 19.8047 20.0992
rtibia 23.0083
rfoot -17.1352 9.26565
rtoes -8.90322
lfemur -11.2241 -25.6551 -13.9561
ltibia 36.7167
lfoot -19.6493 -12.5579
ltoes -11.1019
154
root 1.38063 17.3979 18.3507 -728.889 39.8793 -2.82296
lowerback 9.43826 -2.3939 3.73013
upperback 1.18588 -2.924 -3.13902
thorax -4.41063 -1.53306 -5.00211
lowerneck -0.0832189 -2.50957 -1.26951
upperneck 9.83579 -2.79827 -5.42965
head 3.10673 -1.59135 -1.61966
rclavicle -2.43263e-014 -4.77083e-015
rhumerus 1.90101 -6.4843 -59.9063
rradius 107.167
rwrist -20.9949
rhand -11.0361 20.864
rfingers 7.12502
rthumb 14.9857 -8.57376
lclavicle -2.43263e-014 -4.77083e-015
lhumerus -41.4011 32.9581 61.0695
lradius 24.2736
lwrist -25.7707
lhand -10.8456 -4.68667
lfingers 7.12502
lthumb 15.1692 24.7373
rfemur 5.33262 19.5614 20.2163
rtibia 22.7474
rfoot -17.1504 9.69832
rtoes -8.31246
lfemur -11.6009 -26.0014 -13.7117
ltibia 36.8628
lfoot -19.5237 -12.901
ltoes -11.1553
155
root 1.32759 17.3897 18.3506 -729.047 40.6149 -2.9416
lowerback 9.51309 -2.51601 3.73569
upperback 1.2447 -3.07946 -3.06175
thorax -4.40481 -1.60777 -4.89984
lowerneck -0.324942 -2.12341 -1.21454
upperneck 10.0028 -2.22628 -5.83131
head 3.22107 -1.32427 -1.75642
rclavicle -6.17848e-014 -2.06736e-014
rhumerus 0.347294 -5.22843 -60.471
rradius 109.046
rwrist -20.9134
rhand -11.2406 21.4543
rfingers 7.12502
rthumb 14.7887 -7.99803
lclavicle -6.17848e-014 -2.06736e-014
lhumerus -41.2093 32.5819 61.5509
lradius 24.653
lwrist -25.2495
lhand -10.8005 -4.71218
lfingers 7.12502
lthumb 15.2127 24.7085
rfemur 5.56345 19.2228 20.3592
rtibia 22.528
rfoot -17.2262 9.98875
rtoes -8.02983
lfemur -11.9656 -26.3177 -13.4583
ltibia 36.9939
lfoot -19.384 -13.2428
ltoes -11.2581
156
root 1.27264 17.3819 18.3459 -729.198 41.3183 -3.05678
lowerback 9.61184 -2.62188 3.77332
upperback 1.31205 -3.20917 -2.98813
thorax -4.40198 -1.67009 -4.82254
lowerneck -0.452593 -1.67094 -0.979569
upperneck 10.0432 -1.56706 -6.38142
head 3.27549 -1.00874 -1.96713
rclavicle 2.08724e-015 -1.03368e-014
rhumerus -1.18078 -3.83269 -61.0735
rradius 110.87
rwrist -20.7727
rhand -11.5701 21.9319
rfingers 7.12502
rthumb 14.4713 -7.54351
lclavicle 2.08724e-015 -1.03368e-014
lhumerus -40.9992 32.2502 62.0509
lradius 25.0593
lwrist -24.7579
lhand -10.7558 -4.77992
lfingers 7.12502
lthumb 15.2558 24.6375
rfemur 5.75168 18.756 20.4798
rtibia 22.3476
rfoot -17.3514 10.1545
rtoes -8.01416
lfemur -12.3492 -26.6121 -13.2123
ltibia 37.1229
lfoot -19.2548 -13.5445
ltoes -11.4977
157
root 1.21583 17.3722 18.335 -729.343 42.0056 -3.17417
lowerback 9.77863 -2.72233 3.87169
upperback 1.34858 -3.32379 -2.92072
thorax -4.47128 -1.72823 -4.78527
lowerneck -0.403293 -1.13128 -0.514039
upperneck 9.98609 -0.78996 -7.1372
head 3.27478 -0.627845 -2.28213
rclavicle 7.48549e-014 -9.54166e-015
rhumerus -2.7099 -2.27924 -61.743
rradius 112.584
rwrist -20.5594
rhand -12.0384 22.3407
rfingers 7.12502
rthumb 14.02 -7.16646
lclavicle 7.48549e-014 -9.54166e-015
lhumerus -40.823 31.9752 62.519
lradius 25.4497
lwrist -24.3599
lhand -10.7453 -4.90252
lfingers 7.12502
lthumb 15.2658 24.5142
rfemur 5.88933 18.1535 20.5714
rtibia 22.1959
rfoot -17.5133 10.1907
rtoes -8.46121
lfemur -12.7609 -26.9103 -12.9618
ltibia 37.2406
lfoot -19.0971 -13.8545
ltoes -11.6484
158
root 1.15684 17.3627 18.3223 -729.503 42.674 -3.31224
lowerback 9.98484 -2.81261 4.01609
upperback 1.38699 -3.41825 -2.85783
thorax -4.56127 -1.77752 -4.77995
lowerneck -0.286245 -0.544856 0.030552
upperneck 9.85478 0.0484091 -7.9658
head 3.25219 -0.212175 -2.63732
rclavicle 1.82633e-015 -2.38542e-015
rhumerus -4.22776 -0.624611 -62.5013
rradius 114.192
rwrist -20.2858
rhand -12.5944 22.705
rfingers 7.12502
rthumb 13.4841 -6.83845
lclavicle 1.82633e-015 -2.38542e-015
lhumerus -40.6399 31.7188 62.9956
lradius 25.8716
lwrist -23.9831
lhand -10.7094 -5.05462
lfingers 7.12502
lthumb 15.3004 24.3594
rfemur 6.02715 17.5296 20.7016
rtibia 22.0418
rfoot -17.7536 9.99246
rtoes -9.47385
lfemur -13.1838 -27.1882 -12.6881
ltibia 37.3428
lfoot -18.904 -14.227
ltoes -11.7003
